# 3ds Max Wavefront OBJ Exporter v0.97b - (c)2007 guruware
# File Created: 04.04.2016 16:56:38

#
# object Plane001
#

v  -67.527145385742 0.000000000000 94.364006042480
v  67.623657226563 0.000000000000 94.364006042480
v  67.623657226563 0.000000000000 -95.463386535645
v  -67.527145385742 0.000000000000 -95.463386535645
# 4 vertices

vn 0.004800000228 1.000000000000 0.005499999970
vn -0.002099999925 0.999899983406 0.012099999934
vn 0.004800000228 0.999899983406 0.012099999934
vn 0.000000000000 1.000000000000 -0.000000000000
# 4 vertex normals

vt -1.735122442245 -1.735122442245 0.000000000000
vt 2.735122680664 -1.735122442245 0.000000000000
vt 2.735122680664 2.735122680664 0.000000000000
vt -1.735122442245 2.735122680664 0.000000000000
# 4 texture coords

g Plane001
s 1
f 1/1/1 2/2/2 3/3/3 4/4/4 
# 1 polygons

