# 3ds Max Wavefront OBJ Exporter v0.97b - (c)2007 guruware
# File Created: 28.12.2015 16:44:33

#
# object tenedor
#

v  4.2626 -0.1439 -0.1317
v  3.2448 -0.1647 -0.2146
v  3.3401 -0.0553 -0.3871
v  4.4397 -0.0613 -0.2369
v  2.4614 -0.1236 -0.1510
v  2.6541 -0.0315 -0.2557
v  0.7796 -0.0942 -0.1347
v  0.7796 -0.0306 -0.1859
v  -0.6712 -0.0828 -0.1742
v  -0.6712 -0.0286 -0.2157
v  -1.3749 -0.1257 -0.3136
v  -1.3399 -0.0390 -0.3801
v  -1.7879 -0.1169 -0.3986
v  -1.7879 -0.0207 -0.4900
v  3.3401 0.0541 -0.3871
v  4.4506 0.0601 -0.2429
v  2.6541 0.0607 -0.2557
v  0.7796 0.0331 -0.1859
v  -0.6712 0.0348 -0.2157
v  -1.3399 0.0768 -0.3801
v  -1.7879 0.0597 -0.4900
v  3.4578 0.1179 -0.1984
v  4.2764 0.0957 -0.1554
v  2.4614 0.1053 -0.1810
v  0.8224 0.0968 -0.1008
v  -0.6712 0.0849 -0.1564
v  -1.3749 0.1398 -0.2822
v  -1.7879 0.1326 -0.4068
v  -4.1992 0.1339 -0.4317
v  -4.2119 0.0621 -0.5328
v  -4.2930 0.0718 -0.4218
v  -1.7188 0.1105 -0.1401
v  -3.0662 0.1207 -0.4716
v  -3.0662 0.0958 -0.3022
v  -3.0662 0.0530 -0.5535
v  -3.0662 -0.0146 -0.5535
v  -3.0662 -0.0900 -0.4624
v  -1.7188 -0.0715 -0.1476
v  -3.0662 -0.0574 -0.3097
v  -4.2382 0.0746 -0.3063
v  -4.2105 -0.0231 -0.5328
v  -4.1928 -0.0863 -0.4005
v  -4.2304 -0.0223 -0.3200
v  -1.3749 -0.1403 -0.0181
v  -0.6712 -0.0870 -0.0181
v  0.7796 -0.0942 -0.0184
v  2.3118 -0.1436 -0.0184
v  3.2751 -0.1647 -0.0184
v  4.3076 -0.1493 -0.0184
v  -1.3749 0.1647 -0.0181
v  -0.6712 0.0906 -0.0181
v  0.8082 0.0968 -0.0184
v  2.3119 0.1171 -0.0184
v  3.6953 0.1214 0.0208
v  4.3613 0.1177 0.0408
v  4.5341 -0.0613 -0.0184
v  4.5415 0.0601 -0.0184
v  4.2626 -0.1439 0.0949
v  4.4397 -0.0613 0.2000
v  3.6248 -0.0553 0.3653
v  3.4837 -0.1647 0.2372
v  2.6541 -0.0315 0.2188
v  2.4614 -0.1236 0.1141
v  0.7796 -0.0306 0.1490
v  0.7796 -0.0942 0.0978
v  -0.6712 -0.0286 0.1796
v  -0.6712 -0.0828 0.1380
v  -1.3170 -0.0390 0.3288
v  -1.3749 -0.1257 0.2774
v  -1.9303 -0.0160 0.4622
v  -1.9303 -0.0924 0.3778
v  4.4506 0.0601 0.2060
v  3.6248 0.0541 0.3653
v  2.6541 0.0607 0.2188
v  0.7796 0.0331 0.1490
v  -0.6712 0.0348 0.1796
v  -1.3170 0.0768 0.3288
v  -1.9303 0.0532 0.4622
v  4.2764 0.1101 0.1648
v  3.6970 0.0979 0.1895
v  2.4614 0.1053 0.1442
v  0.8224 0.0968 0.0640
v  -0.6712 0.0849 0.1203
v  -1.3749 0.1398 0.2460
v  -1.9712 0.1224 0.4071
v  -4.3703 0.0212 0.2430
v  -4.3703 -0.0325 0.2453
v  -4.4993 -0.0415 0.3773
v  -4.5415 -0.0183 0.4966
v  -4.5415 0.0198 0.4898
v  -4.4413 0.0482 0.3753
v  -2.0870 0.0839 0.2005
v  -2.7415 0.0581 0.3280
v  -2.6346 0.0893 0.4708
v  -2.6346 0.0394 0.5535
v  -2.6346 -0.0106 0.5535
v  -2.6346 -0.0605 0.4682
v  -2.7415 -0.0456 0.3366
v  -2.1421 -0.0737 0.2275
v  -3.4378 0.0301 0.3336
v  -3.4278 0.0574 0.4572
v  -3.4177 0.0205 0.5454
v  -3.4177 -0.0164 0.5454
v  -3.4177 -0.0534 0.4590
v  -3.4378 -0.0443 0.3363
v  -4.2930 -0.0336 -0.4081
# 106 vertices

vn 0.1589 -0.9258 -0.3431
vn -0.0514 -0.9292 -0.3659
vn -0.0205 -0.4154 -0.9094
vn 0.5402 -0.4787 -0.6921
vn -0.0397 -0.8535 -0.5196
vn -0.1101 -0.3154 -0.9426
vn -0.0155 -0.8761 -0.4818
vn -0.0054 -0.2813 -0.9596
vn 0.0909 -0.8674 -0.4892
vn 0.1306 -0.2695 -0.9541
vn 0.0692 -0.8878 -0.4551
vn 0.2228 -0.2918 -0.9302
vn 0.0244 -0.9328 -0.3596
vn 0.1222 -0.3041 -0.9448
vn -0.0181 0.5173 -0.8556
vn 0.5413 0.4847 -0.6870
vn -0.1305 0.3175 -0.9392
vn -0.0067 0.3945 -0.9189
vn 0.1306 0.3694 -0.9201
vn 0.2330 0.4479 -0.8632
vn 0.1253 0.3452 -0.9301
vn 0.0111 0.9756 -0.2194
vn 0.0666 0.9650 -0.2536
vn -0.0264 0.9172 -0.3975
vn -0.0164 0.9319 -0.3622
vn 0.0911 0.9055 -0.4145
vn 0.1214 0.9265 -0.3561
vn 0.0262 0.9210 -0.3886
vn -0.2875 0.9514 -0.1107
vn -0.4077 0.3536 -0.8419
vn -0.9289 0.3616 -0.0799
vn -0.3726 0.9187 0.1305
vn 0.0031 0.9469 -0.3214
vn -0.0466 0.6315 0.7739
vn 0.0146 0.3662 -0.9304
vn 0.0065 -0.3718 -0.9283
vn -0.0243 -0.9594 -0.2809
vn -0.3248 -0.9336 0.1512
vn -0.0628 -0.6366 0.7687
vn -0.4900 0.3802 0.7844
vn -0.3977 -0.4345 -0.8081
vn -0.2192 -0.9688 0.1156
vn -0.4288 -0.3957 0.8121
vn -0.0810 -0.9967 0.0067
vn 0.0449 -0.9990 0.0000
vn -0.0254 -0.9997 -0.0000
vn -0.0256 -0.9997 -0.0000
vn -0.0225 -0.9997 0.0135
vn 0.2727 -0.9621 -0.0000
vn 0.0180 0.9998 -0.0014
vn 0.0641 0.9979 0.0000
vn -0.0131 0.9999 0.0000
vn -0.0097 1.0000 -0.0002
vn 0.0080 0.9986 0.0524
vn 0.2130 0.9767 0.0259
vn 0.8684 -0.4958 -0.0000
vn 0.8770 0.4804 -0.0112
vn 0.1722 -0.9311 0.3217
vn 0.5588 -0.4831 0.6741
vn 0.0466 -0.3746 0.9260
vn -0.0258 -0.8948 0.4457
vn -0.1059 -0.2943 0.9498
vn -0.0417 -0.8538 0.5190
vn -0.0052 -0.2814 0.9596
vn -0.0154 -0.8762 0.4818
vn 0.1241 -0.2693 0.9550
vn 0.0884 -0.8666 0.4912
vn 0.2106 -0.2603 0.9423
vn 0.0708 -0.8702 0.4876
vn 0.1339 -0.3404 0.9307
vn -0.0020 -0.9161 0.4009
vn 0.5817 0.4383 0.6852
vn 0.0245 0.5520 0.8335
vn -0.1036 0.3526 0.9300
vn -0.0065 0.3945 0.9189
vn 0.1268 0.3672 0.9215
vn 0.2186 0.4305 0.8757
vn 0.1555 0.2926 0.9435
vn 0.0710 0.8730 0.4826
vn 0.0115 0.9664 0.2567
vn -0.0263 0.9160 0.4002
vn -0.0163 0.9319 0.3622
vn 0.0912 0.9054 0.4146
vn 0.1102 0.9187 0.3792
vn 0.0001 0.9092 0.4164
vn -0.2958 0.5202 -0.8012
vn -0.2680 -0.5969 -0.7563
vn -0.7885 -0.5300 -0.3121
vn -0.7557 -0.4482 0.4775
vn -0.7914 0.5062 0.3427
vn -0.4067 0.8892 -0.2094
vn -0.3786 0.6935 -0.6130
vn -0.1028 0.6117 -0.7844
vn -0.0463 0.9720 0.2305
vn 0.0299 0.4283 0.9031
vn 0.0482 -0.4409 0.8963
vn -0.0099 -0.9573 0.2889
vn -0.0762 -0.6982 -0.7119
vn -0.2933 -0.7480 -0.5954
vn 0.0186 0.5979 -0.8014
vn -0.0326 0.9928 0.1155
vn -0.0380 0.5040 0.8629
vn -0.0277 -0.5133 0.8578
vn -0.0173 -0.9775 0.2102
vn 0.0262 -0.6954 -0.7181
vn -0.9010 -0.4325 0.0339
# 106 vertex normals

vt 0.8317 0.8056 0.0000
vt 0.7380 0.7970 0.0000
vt 0.7471 0.7763 0.0000
vt 0.8499 0.7942 0.0000
vt 0.6653 0.8025 0.0000
vt 0.6828 0.7870 0.0000
vt 0.5094 0.8042 0.0000
vt 0.5094 0.7953 0.0000
vt 0.3750 0.8003 0.0000
vt 0.3756 0.7929 0.0000
vt 0.3108 0.7822 0.0000
vt 0.3159 0.7710 0.0000
vt 0.2732 0.7712 0.0000
vt 0.2744 0.7572 0.0000
vt 0.8325 0.9576 0.0000
vt 0.7282 0.9768 0.0000
vt 0.7272 0.9644 0.0000
vt 0.8254 0.9491 0.0000
vt 0.6646 0.9668 0.0000
vt 0.6648 0.9561 0.0000
vt 0.4956 0.9554 0.0000
vt 0.4957 0.9481 0.0000
vt 0.3655 0.9589 0.0000
vt 0.3646 0.9517 0.0000
vt 0.3069 0.9790 0.0000
vt 0.3038 0.9661 0.0000
vt 0.2649 0.9861 0.0000
vt 0.2635 0.9770 0.0000
vt 0.7364 0.9464 0.0000
vt 0.8097 0.9424 0.0000
vt 0.6470 0.9465 0.0000
vt 0.4972 0.9380 0.0000
vt 0.3623 0.9436 0.0000
vt 0.3004 0.9549 0.0000
vt 0.2631 0.9659 0.0000
vt 0.0474 0.9677 0.0000
vt 0.0456 0.9786 0.0000
vt 0.0389 0.9692 0.0000
vt 0.2604 0.9481 0.0000
vt 0.1481 0.9718 0.0000
vt 0.1478 0.9564 0.0000
vt 0.1482 0.9826 0.0000
vt 0.1479 0.9905 0.0000
vt 0.1547 0.7647 0.0000
vt 0.1548 0.7524 0.0000
vt 0.2694 0.7883 0.0000
vt 0.1544 0.7793 0.0000
vt 0.2331 0.7186 0.0000
vt 0.2324 0.7386 0.0000
vt 0.1239 0.7332 0.0000
vt 0.1244 0.7162 0.0000
vt 0.0396 0.9574 0.0000
vt 0.0417 0.9862 0.0000
vt 0.0510 0.7702 0.0000
vt 0.0477 0.7565 0.0000
vt 0.0458 0.7795 0.0000
vt 0.0222 0.7275 0.0000
vt 0.0233 0.7167 0.0000
vt 0.3092 0.8096 0.0000
vt 0.3746 0.8150 0.0000
vt 0.5091 0.8150 0.0000
vt 0.6513 0.8151 0.0000
vt 0.7405 0.8153 0.0000
vt 0.8356 0.8155 0.0000
vt 0.3005 0.9311 0.0000
vt 0.3624 0.9310 0.0000
vt 0.4959 0.9309 0.0000
vt 0.6334 0.9309 0.0000
vt 0.7576 0.9273 0.0000
vt 0.8166 0.9254 0.0000
vt 0.8590 0.8157 0.0000
vt 0.8324 0.9308 0.0000
vt 0.8443 0.9308 0.0000
vt 0.8316 0.8257 0.0000
vt 0.8497 0.8373 0.0000
vt 0.7732 0.8562 0.0000
vt 0.7599 0.8388 0.0000
vt 0.6824 0.8432 0.0000
vt 0.6650 0.8277 0.0000
vt 0.5086 0.8348 0.0000
vt 0.5089 0.8259 0.0000
vt 0.3738 0.8372 0.0000
vt 0.3739 0.8296 0.0000
vt 0.3125 0.8479 0.0000
vt 0.3070 0.8368 0.0000
vt 0.2534 0.8538 0.0000
vt 0.2543 0.8419 0.0000
vt 0.8329 0.9039 0.0000
vt 0.8255 0.9122 0.0000
vt 0.7528 0.8963 0.0000
vt 0.7545 0.8840 0.0000
vt 0.6649 0.9059 0.0000
vt 0.6647 0.8951 0.0000
vt 0.4957 0.9138 0.0000
vt 0.4957 0.9064 0.0000
vt 0.3647 0.9102 0.0000
vt 0.3655 0.9030 0.0000
vt 0.3060 0.8973 0.0000
vt 0.3089 0.8844 0.0000
vt 0.2509 0.8838 0.0000
vt 0.2520 0.8759 0.0000
vt 0.8096 0.9152 0.0000
vt 0.7580 0.9124 0.0000
vt 0.6471 0.9153 0.0000
vt 0.4994 0.9239 0.0000
vt 0.3645 0.9183 0.0000
vt 0.3004 0.9073 0.0000
vt 0.2468 0.8929 0.0000
vt 0.0291 0.9087 0.0000
vt 0.0228 0.9113 0.0000
vt 0.0141 0.8971 0.0000
vt 0.0133 0.8841 0.0000
vt 0.0156 0.8856 0.0000
vt 0.0246 0.8957 0.0000
vt 0.2434 0.9100 0.0000
vt 0.1771 0.9003 0.0000
vt 0.1871 0.8871 0.0000
vt 0.1870 0.8778 0.0000
vt 0.1872 0.8721 0.0000
vt 0.1871 0.8527 0.0000
vt 0.1879 0.8428 0.0000
vt 0.1789 0.8297 0.0000
vt 0.2433 0.8286 0.0000
vt 0.2782 0.7208 0.0000
vt 0.3378 0.7243 0.0000
vt 0.3377 0.7358 0.0000
vt 0.2730 0.7383 0.0000
vt 0.1144 0.8999 0.0000
vt 0.1155 0.8883 0.0000
vt 0.1163 0.8793 0.0000
vt 0.1160 0.8750 0.0000
vt 0.1146 0.8467 0.0000
vt 0.1150 0.8376 0.0000
vt 0.1136 0.8261 0.0000
vt 0.3982 0.7251 0.0000
vt 0.3982 0.7333 0.0000
vt 0.0101 0.8414 0.0000
vt 0.0142 0.8300 0.0000
vt 0.0264 0.8176 0.0000
vt 0.4796 0.7273 0.0000
vt 0.4795 0.7333 0.0000
vt 0.0293 0.9741 0.0000
vt 0.0404 0.7696 0.0000
vt 0.0274 0.9625 0.0000
# 144 texture coords

g tenedor
s 1
f 1/1/1 2/2/2 3/3/3 4/4/4 
f 2/2/2 5/5/5 6/6/6 3/3/3 
f 5/5/5 7/7/7 8/8/8 6/6/6 
f 7/7/7 9/9/9 10/10/10 8/8/8 
f 9/9/9 11/11/11 12/12/12 10/10/10 
f 11/11/11 13/13/13 14/14/14 12/12/12 
f 4/15/4 3/16/3 15/17/15 16/18/16 
f 3/16/3 6/19/6 17/20/17 15/17/15 
f 6/19/6 8/21/8 18/22/18 17/20/17 
f 8/21/8 10/23/10 19/24/19 18/22/18 
f 10/23/10 12/25/12 20/26/20 19/24/19 
f 12/25/12 14/27/14 21/28/21 20/26/20 
f 16/18/16 15/17/15 22/29/22 23/30/23 
f 15/17/15 17/20/17 24/31/24 22/29/22 
f 17/20/17 18/22/18 25/32/25 24/31/24 
f 18/22/18 19/24/19 26/33/26 25/32/25 
f 19/24/19 20/26/20 27/34/27 26/33/26 
f 20/26/20 21/28/21 28/35/28 27/34/27 
f 29/36/29 30/37/30 31/38/31 
f 32/39/32 28/35/28 33/40/33 34/41/34 
f 28/35/28 21/28/21 35/42/35 33/40/33 
f 21/28/21 14/27/14 36/43/36 35/42/35 
f 14/14/14 13/13/13 37/44/37 36/45/36 
f 13/13/13 38/46/38 39/47/39 37/44/37 
f 38/48/38 32/49/32 34/50/34 39/51/39 
f 34/41/34 33/40/33 29/36/29 40/52/40 
f 33/40/33 35/42/35 30/37/30 29/36/29 
f 35/42/35 36/43/36 41/53/41 30/37/30 
f 36/45/36 37/44/37 42/54/42 41/55/41 
f 37/44/37 39/47/39 43/56/43 42/54/42 
f 39/51/39 34/50/34 40/57/40 43/58/43 
f 38/46/38 13/13/13 11/11/11 44/59/44 
f 44/59/44 11/11/11 9/9/9 45/60/45 
f 9/9/9 7/7/7 46/61/46 45/60/45 
f 7/7/7 5/5/5 47/62/47 46/61/46 
f 5/5/5 2/2/2 48/63/48 47/62/47 
f 48/63/48 2/2/2 1/1/1 49/64/49 
f 50/65/50 27/34/27 28/35/28 32/39/32 
f 26/33/26 27/34/27 50/65/50 51/66/51 
f 52/67/52 25/32/25 26/33/26 51/66/51 
f 53/68/53 24/31/24 25/32/25 52/67/52 
f 54/69/54 22/29/22 24/31/24 53/68/53 
f 23/30/23 22/29/22 54/69/54 55/70/55 
f 49/64/49 1/1/1 4/4/4 56/71/56 
f 4/15/4 16/18/16 57/72/57 56/73/56 
f 16/18/16 23/30/23 55/70/55 57/72/57 
f 58/74/58 59/75/59 60/76/60 61/77/61 
f 61/77/61 60/76/60 62/78/62 63/79/63 
f 63/79/63 62/78/62 64/80/64 65/81/65 
f 65/81/65 64/80/64 66/82/66 67/83/67 
f 67/83/67 66/82/66 68/84/68 69/85/69 
f 69/85/69 68/84/68 70/86/70 71/87/71 
f 59/88/59 72/89/72 73/90/73 60/91/60 
f 60/91/60 73/90/73 74/92/74 62/93/62 
f 62/93/62 74/92/74 75/94/75 64/95/64 
f 64/95/64 75/94/75 76/96/76 66/97/66 
f 66/97/66 76/96/76 77/98/77 68/99/68 
f 68/99/68 77/98/77 78/100/78 70/101/70 
f 72/89/72 79/102/79 80/103/80 73/90/73 
f 73/90/73 80/103/80 81/104/81 74/92/74 
f 74/92/74 81/104/81 82/105/82 75/94/75 
f 75/94/75 82/105/82 83/106/83 76/96/76 
f 76/96/76 83/106/83 84/107/84 77/98/77 
f 77/98/77 84/107/84 85/108/85 78/100/78 
f 86/109/86 87/110/87 88/111/88 89/112/89 
f 86/109/86 89/112/89 90/113/90 91/114/91 
f 92/115/92 93/116/93 94/117/94 85/108/85 
f 85/108/85 94/117/94 95/118/95 78/100/78 
f 78/100/78 95/118/95 96/119/96 70/101/70 
f 70/86/70 96/120/96 97/121/97 71/87/71 
f 71/87/71 97/121/97 98/122/98 99/123/99 
f 99/124/99 98/125/98 93/126/93 92/127/92 
f 93/116/93 100/128/100 101/129/101 94/117/94 
f 94/117/94 101/129/101 102/130/102 95/118/95 
f 95/118/95 102/130/102 103/131/103 96/119/96 
f 96/120/96 103/132/103 104/133/104 97/121/97 
f 97/121/97 104/133/104 105/134/105 98/122/98 
f 98/125/98 105/135/105 100/136/100 93/126/93 
f 100/128/100 86/109/86 91/114/91 101/129/101 
f 101/129/101 91/114/91 90/113/90 102/130/102 
f 102/130/102 90/113/90 89/112/89 103/131/103 
f 103/132/103 89/137/89 88/138/88 104/133/104 
f 104/133/104 88/138/88 87/139/87 105/134/105 
f 105/135/105 87/140/87 86/141/86 100/136/100 
f 38/46/38 44/59/44 69/85/69 99/123/99 
f 69/85/69 71/87/71 99/123/99 
f 44/59/44 45/60/45 67/83/67 69/85/69 
f 67/83/67 45/60/45 46/61/46 65/81/65 
f 65/81/65 46/61/46 47/62/47 63/79/63 
f 63/79/63 47/62/47 48/63/48 61/77/61 
f 48/63/48 49/64/49 58/74/58 61/77/61 
f 50/65/50 32/39/32 92/115/92 85/108/85 
f 50/65/50 85/108/85 84/107/84 
f 83/106/83 51/66/51 50/65/50 84/107/84 
f 52/67/52 51/66/51 83/106/83 82/105/82 
f 53/68/53 52/67/52 82/105/82 81/104/81 
f 54/69/54 53/68/53 81/104/81 80/103/80 
f 79/102/79 55/70/55 54/69/54 80/103/80 
f 49/64/49 56/71/56 59/75/59 58/74/58 
f 59/88/59 56/73/56 57/72/57 72/89/72 
f 72/89/72 57/72/57 55/70/55 79/102/79 
f 92/127/92 32/49/32 38/48/38 99/124/99 
f 41/53/41 106/142/106 31/38/31 30/37/30 
f 41/55/41 42/54/42 106/143/106 
f 42/54/42 43/56/43 106/143/106 
f 43/144/43 40/52/40 31/38/31 106/142/106 
f 31/38/31 40/52/40 29/36/29 
# 101 polygons - 6 triangles

