# 3ds Max Wavefront OBJ Exporter v0.97b - (c)2007 guruware
# File Created: 08.04.2016 12:57:45

mtllib viga_big.mtl

#
# object Cylinder001
#

v  -20.712334 0.000000 27.629959
v  -21.244823 0.000000 24.952959
v  -20.259075 8.907801 24.544649
v  -19.645370 8.907801 27.629959
v  -22.761221 0.000000 22.683508
v  -22.006763 8.907801 21.929050
v  -25.030672 0.000000 21.167110
v  -24.622362 8.907801 20.181362
v  -27.707672 0.000000 20.634621
v  -27.707672 8.907801 19.567657
v  -30.384672 0.000000 21.167110
v  -30.792982 8.907801 20.181362
v  -32.654121 0.000000 22.683508
v  -33.408581 8.907801 21.929050
v  -34.170521 0.000000 24.952959
v  -35.156269 8.907801 24.544649
v  -34.703011 0.000000 27.629957
v  -35.769974 8.907801 27.629957
v  -34.170521 0.000000 30.306957
v  -35.156269 8.907801 30.715267
v  -32.654125 0.000000 32.576408
v  -33.408585 8.907801 33.330868
v  -30.384674 0.000000 34.092808
v  -30.792984 8.907801 35.078556
v  -27.707672 0.000000 34.625298
v  -27.707672 8.907801 35.692261
v  -25.030670 0.000000 34.092808
v  -24.622360 8.907801 35.078556
v  -22.761219 0.000000 32.576408
v  -22.006762 8.907801 33.330864
v  -21.244820 0.000000 30.306955
v  -20.259073 8.907801 30.715265
v  -20.259075 186.920303 24.544649
v  -19.645370 186.920303 27.629959
v  -22.006763 186.920303 21.929050
v  -24.622362 186.920303 20.181362
v  -27.707672 186.920303 19.567657
v  -30.792982 186.920303 20.181362
v  -33.408581 186.920303 21.929050
v  -35.156269 186.920303 24.544649
v  -35.769974 186.920303 27.629957
v  -35.156269 186.920303 30.715267
v  -33.408585 186.920303 33.330868
v  -30.792984 186.920303 35.078556
v  -27.707672 186.920303 35.692261
v  -24.622360 186.920303 35.078556
v  -22.006762 186.920303 33.330864
v  -20.259073 186.920303 30.715265
v  -21.024570 192.814453 24.861727
v  -20.473934 192.814453 27.629959
v  -22.592648 192.814453 22.514935
v  -24.939442 192.814453 20.946857
v  -27.707672 192.814453 20.396221
v  -30.475904 192.814453 20.946857
v  -32.822697 192.814453 22.514935
v  -34.390774 192.814453 24.861727
v  -34.941410 192.814453 27.629957
v  -34.390774 192.814453 30.398190
v  -32.822701 192.814453 32.744984
v  -30.475904 192.814453 34.313061
v  -27.707672 192.814453 34.863697
v  -24.939440 192.814453 34.313061
v  -22.592646 192.814453 32.744984
v  -21.024569 192.814453 30.398188
# 64 vertices

vn 0.483680 -0.875245 -0.000000
vn 0.446862 -0.875245 -0.185096
vn 0.878144 -0.310737 -0.363739
vn 0.950496 -0.310737 -0.000000
vn 0.342013 -0.875245 -0.342013
vn 0.672102 -0.310737 -0.672102
vn 0.185096 -0.875245 -0.446862
vn 0.363739 -0.310737 -0.878144
vn 0.000000 -0.875245 -0.483680
vn 0.000000 -0.310737 -0.950496
vn -0.185096 -0.875245 -0.446862
vn -0.363739 -0.310737 -0.878144
vn -0.342013 -0.875245 -0.342013
vn -0.672102 -0.310737 -0.672102
vn -0.446862 -0.875245 -0.185096
vn -0.878144 -0.310737 -0.363739
vn -0.483680 -0.875245 -0.000000
vn -0.950496 -0.310737 -0.000000
vn -0.446862 -0.875245 0.185096
vn -0.878144 -0.310737 0.363739
vn -0.342013 -0.875245 0.342013
vn -0.672102 -0.310737 0.672102
vn -0.185096 -0.875245 0.446862
vn -0.363739 -0.310737 0.878144
vn -0.000000 -0.875245 0.483680
vn 0.000000 -0.310737 0.950496
vn 0.185096 -0.875245 0.446862
vn 0.363739 -0.310737 0.878144
vn 0.342013 -0.875245 0.342013
vn 0.672102 -0.310737 0.672102
vn 0.446862 -0.875245 0.185096
vn 0.878144 -0.310737 0.363739
vn 0.867100 0.345165 -0.359164
vn 0.938542 0.345165 -0.000000
vn 0.663649 0.345165 -0.663649
vn 0.359164 0.345165 -0.867100
vn 0.000000 0.345165 -0.938542
vn -0.359164 0.345165 -0.867100
vn -0.663649 0.345165 -0.663649
vn -0.867100 0.345165 -0.359164
vn -0.938542 0.345165 -0.000000
vn -0.867100 0.345165 0.359164
vn -0.663649 0.345165 0.663649
vn -0.359164 0.345165 0.867100
vn 0.000000 0.345165 0.938542
vn 0.359165 0.345165 0.867099
vn 0.663649 0.345165 0.663649
vn 0.867100 0.345165 0.359164
vn 0.412423 0.894832 -0.170831
vn 0.446403 0.894832 -0.000000
vn 0.315655 0.894832 -0.315655
vn 0.170831 0.894832 -0.412423
vn -0.000000 0.894832 -0.446403
vn -0.170831 0.894832 -0.412423
vn -0.315655 0.894832 -0.315655
vn -0.412423 0.894832 -0.170831
vn -0.446403 0.894832 -0.000000
vn -0.412423 0.894832 0.170831
vn -0.315655 0.894832 0.315654
vn -0.170831 0.894832 0.412423
vn 0.000000 0.894832 0.446403
vn 0.170831 0.894832 0.412422
vn 0.315655 0.894832 0.315654
vn 0.412422 0.894832 0.170831
# 64 vertex normals

vt 0.412283 0.006529 0.000000
vt 0.446295 0.006571 0.000000
vt 0.446345 0.062646 0.000000
vt 0.412299 0.062646 0.000000
vt 0.480176 0.006775 0.000000
vt 0.480321 0.062679 0.000000
vt 0.513589 0.006922 -0.000000
vt 0.514433 0.062534 -0.000000
vt 0.545439 0.002001 0.000000
vt 0.549285 0.059494 0.000000
vt 0.006592 0.002000 0.000000
vt 0.038441 0.006921 0.000000
vt 0.037597 0.062533 0.000000
vt 0.002745 0.059493 0.000000
vt 0.071853 0.006774 0.000000
vt 0.071708 0.062678 0.000000
vt 0.105732 0.006570 -0.000000
vt 0.105682 0.062645 -0.000000
vt 0.139740 0.006529 0.000000
vt 0.139724 0.062645 0.000000
vt 0.173793 0.006521 -0.000000
vt 0.173788 0.062643 -0.000000
vt 0.207861 0.006519 0.000000
vt 0.207860 0.062643 0.000000
vt 0.241934 0.006520 0.000000
vt 0.241934 0.062644 0.000000
vt 0.276009 0.006519 0.000000
vt 0.276008 0.062643 0.000000
vt 0.310083 0.006520 0.000000
vt 0.310084 0.062644 0.000000
vt 0.344157 0.006519 0.000000
vt 0.344159 0.062643 0.000000
vt 0.378228 0.006522 0.000000
vt 0.378233 0.062644 0.000000
vt 0.446437 0.957492 0.000000
vt 0.412333 0.957513 0.000000
vt 0.480645 0.957176 0.000000
vt 0.515051 0.956315 -0.000000
vt 0.550031 0.957419 0.000000
vt 0.036980 0.956314 0.000000
vt 0.002000 0.957418 0.000000
vt 0.071384 0.957175 0.000000
vt 0.105590 0.957491 -0.000000
vt 0.139690 0.957512 0.000000
vt 0.173776 0.957517 -0.000000
vt 0.207854 0.957523 0.000000
vt 0.241931 0.957521 0.000000
vt 0.276008 0.957520 0.000000
vt 0.310087 0.957521 0.000000
vt 0.344164 0.957523 0.000000
vt 0.378245 0.957518 0.000000
vt 0.446507 0.997098 0.000000
vt 0.412351 0.997110 0.000000
vt 0.480723 0.996630 0.000000
vt 0.514737 0.995556 -0.000000
vt 0.547532 0.998000 0.000000
vt 0.037293 0.995555 0.000000
vt 0.004499 0.997999 0.000000
vt 0.071306 0.996629 0.000000
vt 0.105520 0.997096 -0.000000
vt 0.139673 0.997109 0.000000
vt 0.173770 0.997115 -0.000000
vt 0.207852 0.997124 0.000000
vt 0.241931 0.997122 0.000000
vt 0.276008 0.997120 0.000000
vt 0.310087 0.997122 0.000000
vt 0.344167 0.997125 0.000000
vt 0.378251 0.997116 0.000000
vt 0.791126 0.515070 0.000000
vt 0.819633 0.472407 0.000000
vt 0.829643 0.422082 0.000000
vt 0.698137 0.553587 0.000000
vt 0.819633 0.371757 0.000000
vt 0.791126 0.329093 0.000000
vt 0.698137 0.290576 0.000000
vt 0.748462 0.300586 0.000000
vt 0.647812 0.300586 0.000000
vt 0.605149 0.329093 0.000000
vt 0.566632 0.422082 0.000000
vt 0.576642 0.371757 0.000000
vt 0.576642 0.472407 0.000000
vt 0.605149 0.515070 0.000000
vt 0.647812 0.543577 0.000000
vt 0.748462 0.543577 0.000000
vt 0.650579 0.263623 0.000000
vt 0.606461 0.234145 0.000000
vt 0.576983 0.190028 0.000000
vt 0.754659 0.263623 0.000000
vt 0.566632 0.137987 0.000000
vt 0.576983 0.085947 0.000000
vt 0.650579 0.012351 0.000000
vt 0.606461 0.041830 0.000000
vt 0.702619 0.002000 0.000000
vt 0.754659 0.012351 0.000000
vt 0.828255 0.085947 0.000000
vt 0.798777 0.041830 0.000000
vt 0.838606 0.137987 0.000000
vt 0.828255 0.190028 0.000000
vt 0.798777 0.234145 0.000000
vt 0.702619 0.273975 0.000000
# 100 texture coords

g Cylinder001
usemtl wire_177148027
s 1
f 1/1/1 2/2/2 3/3/3 4/4/4 
f 2/2/2 5/5/5 6/6/6 3/3/3 
f 5/5/5 7/7/7 8/8/8 6/6/6 
f 7/7/7 9/9/9 10/10/10 8/8/8 
f 9/11/9 11/12/11 12/13/12 10/14/10 
f 11/12/11 13/15/13 14/16/14 12/13/12 
f 13/15/13 15/17/15 16/18/16 14/16/14 
f 15/17/15 17/19/17 18/20/18 16/18/16 
f 17/19/17 19/21/19 20/22/20 18/20/18 
f 19/21/19 21/23/21 22/24/22 20/22/20 
f 21/23/21 23/25/23 24/26/24 22/24/22 
f 23/25/23 25/27/25 26/28/26 24/26/24 
f 25/27/25 27/29/27 28/30/28 26/28/26 
f 27/29/27 29/31/29 30/32/30 28/30/28 
f 29/31/29 31/33/31 32/34/32 30/32/30 
f 31/33/31 1/1/1 4/4/4 32/34/32 
f 4/4/4 3/3/3 33/35/33 34/36/34 
f 3/3/3 6/6/6 35/37/35 33/35/33 
f 6/6/6 8/8/8 36/38/36 35/37/35 
f 8/8/8 10/10/10 37/39/37 36/38/36 
f 10/14/10 12/13/12 38/40/38 37/41/37 
f 12/13/12 14/16/14 39/42/39 38/40/38 
f 14/16/14 16/18/16 40/43/40 39/42/39 
f 16/18/16 18/20/18 41/44/41 40/43/40 
f 18/20/18 20/22/20 42/45/42 41/44/41 
f 20/22/20 22/24/22 43/46/43 42/45/42 
f 22/24/22 24/26/24 44/47/44 43/46/43 
f 24/26/24 26/28/26 45/48/45 44/47/44 
f 26/28/26 28/30/28 46/49/46 45/48/45 
f 28/30/28 30/32/30 47/50/47 46/49/46 
f 30/32/30 32/34/32 48/51/48 47/50/47 
f 32/34/32 4/4/4 34/36/34 48/51/48 
f 34/36/34 33/35/33 49/52/49 50/53/50 
f 33/35/33 35/37/35 51/54/51 49/52/49 
f 35/37/35 36/38/36 52/55/52 51/54/51 
f 36/38/36 37/39/37 53/56/53 52/55/52 
f 37/41/37 38/40/38 54/57/54 53/58/53 
f 38/40/38 39/42/39 55/59/55 54/57/54 
f 39/42/39 40/43/40 56/60/56 55/59/55 
f 40/43/40 41/44/41 57/61/57 56/60/56 
f 41/44/41 42/45/42 58/62/58 57/61/57 
f 42/45/42 43/46/43 59/63/59 58/62/58 
f 43/46/43 44/47/44 60/64/60 59/63/59 
f 44/47/44 45/48/45 61/65/61 60/64/60 
f 45/48/45 46/49/46 62/66/62 61/65/61 
f 46/49/46 47/50/47 63/67/63 62/66/62 
f 47/50/47 48/51/48 64/68/64 63/67/63 
f 48/51/48 34/36/34 50/53/50 64/68/64 
f 29/69/29 27/70/27 25/71/25 1/72/1 
f 25/71/25 23/73/23 21/74/21 17/75/17 
f 21/74/21 19/76/19 17/75/17 
f 17/75/17 15/77/15 13/78/13 9/79/9 
f 13/78/13 11/80/11 9/79/9 
f 9/79/9 7/81/7 5/82/5 1/72/1 
f 5/82/5 2/83/2 1/72/1 
f 17/75/17 9/79/9 1/72/1 25/71/25 
f 31/84/31 29/69/29 1/72/1 
f 49/85/49 51/86/51 52/87/52 64/88/64 
f 52/87/52 53/89/53 54/90/54 56/91/56 
f 54/90/54 55/92/55 56/91/56 
f 56/91/56 57/93/57 58/94/58 60/95/60 
f 58/94/58 59/96/59 60/95/60 
f 60/95/60 61/97/61 62/98/62 64/88/64 
f 62/98/62 63/99/63 64/88/64 
f 56/91/56 60/95/60 64/88/64 52/87/52 
f 50/100/50 49/85/49 64/88/64 
# 58 polygons - 8 triangles

