# 3ds Max Wavefront OBJ Exporter v0.97b - (c)2007 guruware
# File Created: 08.04.2016 13:08:25

mtllib viga_cuadrada.mtl

#
# object Box001
#

v  -35.967571 0.000000 77.268829
v  -35.967571 0.000000 57.111233
v  -19.442097 0.000000 57.111233
v  -19.442097 0.000000 77.268829
v  -35.649773 189.981476 76.881187
v  -19.759895 189.981476 76.881187
v  -19.759895 189.981476 57.498882
v  -35.649773 189.981476 57.498882
v  -19.021029 186.840439 77.782448
v  -36.388641 186.840439 77.782448
v  -36.388641 3.141036 77.782448
v  -19.021029 3.141030 77.782448
v  -19.021029 186.840439 56.597618
v  -19.021029 3.141030 56.597618
v  -36.388641 186.840439 56.597618
v  -36.388641 3.141030 56.597618
# 16 vertices

vn -0.479179 -0.818615 0.316635
vn -0.479178 -0.818615 -0.316635
vn 0.479178 -0.818615 -0.316635
vn 0.479178 -0.818615 0.316635
vn -0.401714 0.892565 0.204827
vn 0.401714 0.892565 0.204827
vn 0.401714 0.892565 -0.204827
vn -0.401714 0.892565 -0.204827
vn 0.627394 0.411921 0.660831
vn -0.627394 0.411921 0.660831
vn -0.650838 -0.316948 0.689894
vn 0.650837 -0.316948 0.689894
vn 0.627394 0.411921 -0.660831
vn 0.650837 -0.316948 -0.689894
vn -0.627394 0.411921 -0.660831
vn -0.650837 -0.316948 -0.689894
# 16 vertex normals

vt 0.803157 0.002000 0.000000
vt 0.803157 0.239667 0.000000
vt 0.998000 0.239667 0.000000
vt 0.998000 0.002000 0.000000
vt 0.803157 0.255871 0.000000
vt 0.990506 0.255871 0.000000
vt 0.990506 0.484397 0.000000
vt 0.803157 0.484397 0.000000
vt 0.621155 0.567559 0.000000
vt 0.471560 0.567559 0.000000
vt 0.471560 0.014574 0.000000
vt 0.621155 0.014574 0.000000
vt 0.207259 0.940000 0.000000
vt 0.002000 0.940000 0.000000
vt 0.002000 0.018868 0.000000
vt 0.207259 0.018868 0.000000
vt 0.786954 0.567559 0.000000
vt 0.637358 0.567559 0.000000
vt 0.637358 0.014574 0.000000
vt 0.786954 0.014574 0.000000
vt 0.455356 0.832264 0.000000
vt 0.223463 0.832264 0.000000
vt 0.223463 0.016931 0.000000
vt 0.455356 0.016931 0.000000
vt 0.614791 0.584908 0.000000
vt 0.477924 0.584908 0.000000
vt 0.475187 0.002000 0.000000
vt 0.617528 0.002000 0.000000
vt 0.198527 0.958985 0.000000
vt 0.010732 0.958985 0.000000
vt 0.006976 0.002000 0.000000
vt 0.202283 0.002000 0.000000
vt 0.780589 0.584908 0.000000
vt 0.643723 0.584908 0.000000
vt 0.640985 0.002000 0.000000
vt 0.783327 0.002000 0.000000
vt 0.445491 0.849068 0.000000
vt 0.233328 0.849068 0.000000
vt 0.229085 0.002000 0.000000
vt 0.449734 0.002000 0.000000
# 40 texture coords

g Box001
usemtl wire_196088225
s 1
f 1/1/1 2/2/2 3/3/3 4/4/4 
f 5/5/5 6/6/6 7/7/7 8/8/8 
f 9/9/9 10/10/10 11/11/11 12/12/12 
f 13/13/13 9/14/9 12/15/12 14/16/14 
f 15/17/15 13/18/13 14/19/14 16/20/16 
f 10/21/10 15/22/15 16/23/16 11/24/11 
f 6/25/6 5/26/5 10/10/10 9/9/9 
f 1/27/1 4/28/4 12/12/12 11/11/11 
f 7/29/7 6/30/6 9/14/9 13/13/13 
f 4/31/4 3/32/3 14/16/14 12/15/12 
f 8/33/8 7/34/7 13/18/13 15/17/15 
f 3/35/3 2/36/2 16/20/16 14/19/14 
f 5/37/5 8/38/8 15/22/15 10/21/10 
f 2/39/2 1/40/1 11/24/11 16/23/16 
# 14 polygons

